<?xml version="1.0" encoding="utf-8"?>
<!-- Generator: Adobe Illustrator 26.3.1, SVG Export Plug-In . SVG Version: 6.00 Build 0)  -->
<svg version="1.1" id="レイヤー_1" xmlns="http://www.w3.org/2000/svg" xmlns:xlink="http://www.w3.org/1999/xlink" x="0px"
	 y="0px" viewBox="0 0 150 70" style="enable-background:new 0 0 150 70;" xml:space="preserve">
<style type="text/css">
	.st0{clip-path:url(#SVGID_00000040567846569782595440000012819752454763298453_);}
	.st1{fill:#E40684;}
	.st2{fill:none;stroke:#FFFFFF;stroke-width:0.7;}
	.st3{fill:#FFFFFF;}
	.st4{fill:none;stroke:#231815;stroke-width:1.35;}
	.st5{fill:none;stroke:#E12368;stroke-width:2.71;stroke-linecap:round;stroke-linejoin:round;}
	.st6{fill:#231815;}
	.st7{display:none;fill:#F7E4E4;fill-opacity:0;}
	.st8{fill:#555555;}
	.st9{font-family:'SourceHanSansJP-Bold-83pv-RKSJ-H';}
	.st10{font-size:10px;}
</style>
<g transform="translate(-41)">
	<g transform="translate(81 12.79)">
		<g>
			<g>
				<defs>
					<rect id="SVGID_1_" y="0" width="70" height="31.3"/>
				</defs>
				<clipPath id="SVGID_00000126288853431020746380000008637781375105441459_">
					<use xlink:href="#SVGID_1_"  style="overflow:visible;"/>
				</clipPath>
				<g style="clip-path:url(#SVGID_00000126288853431020746380000008637781375105441459_);">
					<path class="st1" d="M10.8,5.3c0.3,0,0.5,0,0.8,0c4.2,0,4.3,3.4,4.3,4.7c0,0.9,0,4.4-4.1,4.4c-0.3,0-0.8,0-1.1,0L10.8,5.3z
						 M0,29.3c0,0.9,0.3,1.2,1.4,1.2h8c1,0,1.5-0.1,1.5-1.1v-10c1.2,0,2.1,0.1,3,0.1c6.9,0,13-2.7,13-9.8c0-8.6-8.7-9.7-16.2-9.7
						C8.8,0,1.6,0.1,0.5,1C0.1,1.4-0.1,1.9,0,2.5V29.3"/>
					<path class="st1" d="M24.9,30.7c-1.3,0.1-2.4-0.8-2.5-2.1c0,0,0,0,0-0.1c0.2-1.4,1.4-2.3,2.8-2.1c1.1,0.1,2,1.1,2.2,2.2
						C27.2,29.8,26.1,30.8,24.9,30.7"/>
					<path class="st2" d="M24.9,30.7c-1.3,0.1-2.4-0.8-2.5-2.1c0,0,0,0,0-0.1c0.2-1.4,1.4-2.3,2.8-2.1c1.1,0.1,2,1.1,2.2,2.2
						C27.2,29.8,26.1,30.8,24.9,30.7"/>
					<path class="st1" d="M34.7,16.6c-0.1-2,0.5-4.1,2.8-4.1c2.2,0,2.4,2.3,2.5,3.4L34.7,16.6z M47,19.1c1-0.1,2.5-0.3,2.5-2.5
						s-2.1-8.9-10.3-8.9c-5.5,0-12.1,3.1-12.1,11.5c0,5.9,3.1,8.8,4,9.5c2.6,2.1,6.4,2.5,8.5,2.5c8.2,0,9.8-6.1,9.8-7.4
						c0.1-1-0.7-1.9-1.7-1.9c-0.1,0-0.1,0-0.2,0c-0.8,0-1.2,0.3-2.4,1.2c-1.1,0.7-2.4,1.1-3.7,1c-1.7,0-5.2-0.6-6.1-3.5L47,19.1"/>
					<path class="st1" d="M51.8,30.7c-1.3,0.1-2.4-0.8-2.5-2.1c0,0,0,0,0-0.1c0.2-1.4,1.4-2.3,2.8-2.1c1.1,0.1,2,1.1,2.2,2.2
						C54.1,29.8,53,30.8,51.8,30.7"/>
					<path class="st1" d="M64.6,11.7V23c0.1,1.8,0.1,3.7,2.9,3.8c0.9,0,2.5,0,2.5,1.6c0,1.5-3.3,2.9-7,2.9c-2,0.1-4-0.5-5.7-1.6
						c-2.1-1.5-2.4-3.4-2.4-5.6V11.7h-2.5c-0.8-0.1-0.8-0.5-0.8-0.8V9c0-0.3,0.3-0.6,0.6-0.6h2.6v-2c0-0.8,0.1-1.1,0.9-1.4l6.8-2.5
						c0.3-0.1,0.6-0.2,0.9-0.2c1.2,0,1.2,1,1.2,1.5v4.6h3c0.8,0,1.2,0,1.2,0.8c0,0.6,0,1.3-0.1,1.9c-0.1,0.5-0.6,0.5-1.2,0.5
						L64.6,11.7"/>
					<path class="st3" d="M11.5,30.6c0.6-2.5,1.5-5,2.6-7.3c0.9-1.6,0.6-4,2.4-5.2c-0.6-0.5-1-1.2-1.1-2.1c0.1-1,0.5-1.9,1.2-2.6
						c0.1,0.8,0.3,1.5,0.6,2.2c0.3,0.7,0.3,1,0.6,1.6c1.8-0.4,4.2-0.5,5.6,0.3c0.6,0.1,1.5,1.4,2.6,1.4c1.2,0.1,2.5,0,3.7-0.2
						c0.2,5.1-5.5,3-7.9,4.8c-2.2,1.6-1,4.6,0.5,6.9L11.5,30.6"/>
					<path class="st4" d="M11.5,30.6c0.6-2.5,1.5-5,2.6-7.3c0.9-1.6,0.6-4,2.4-5.2c-0.6-0.5-1-1.2-1.1-2.1c0.1-1,0.5-1.9,1.2-2.6
						c0.1,0.8,0.3,1.5,0.6,2.2c0.3,0.7,0.3,1,0.6,1.6c1.8-0.4,4.2-0.5,5.6,0.3c0.6,0.1,1.5,1.4,2.6,1.4c1.2,0.1,2.5,0,3.7-0.2
						c0.2,5.1-5.5,3-7.9,4.8c-2.2,1.6-1,4.6,0.5,6.9 M22.6,21.9c0.3,0.7,1.1,1.1,1.8,0.9 M28.2,19.1c0.3,0.3,0.9,0.8,1.2,0.7"/>
					<path class="st5" d="M12,24.9c3.1-0.1,6.2,0.6,9.3,0.9c-2.6-1.5-6.3-0.2-9.1-0.6c3,0.6,6.1,0.6,9.1,1.1h-0.7 M13.1,24.7
						c2.3,0,4.6,0.3,6.8,0.7"/>
					<path class="st6" d="M21.4,19.5c0,0.3,0.2,0.5,0.5,0.5s0.5-0.2,0.5-0.5S22.1,19,21.9,19S21.4,19.2,21.4,19.5"/>
				</g>
			</g>
		</g>
	</g>
	<rect x="41" y="0" class="st7" width="150" height="70"/>
	<text transform="matrix(1 0 0 1 50 62)" class="st8 st9 st10">沖縄</text>
	<text transform="matrix(1 0 0 1 70 62)" class="st8 st9 st10">ペットワールド</text>
	<text transform="matrix(1 0 0 1 140 62)" class="st8 st9 st10">専門学校</text>
</g>
</svg>
